<svg width="40" height="40" viewBox="0 0 40 40" fill="none" xmlns="http://www.w3.org/2000/svg">
<path d="M20 36.6667C21.8333 36.6667 23.3333 35.1667 23.3333 33.3334H16.6666C16.6666 35.1667 18.1666 36.6667 20 36.6667ZM30 26.6667V18.3334C30 13.2167 27.2833 8.93335 22.5 7.80002V6.66669C22.5 5.28335 21.3833 4.16669 20 4.16669C18.6166 4.16669 17.5 5.28335 17.5 6.66669V7.80002C12.7333 8.93335 9.99996 13.2 9.99996 18.3334V26.6667L6.66663 30V31.6667H33.3333V30L30 26.6667ZM26.6666 28.3334H13.3333V18.3334C13.3333 14.2 15.85 10.8334 20 10.8334C24.15 10.8334 26.6666 14.2 26.6666 18.3334V28.3334Z" fill="#313945"/>
</svg>
