<svg width="38" height="43" viewBox="0 0 38 43" fill="none" xmlns="http://www.w3.org/2000/svg">
<path d="M33.2493 14.3335C32.9295 14.3335 25.5702 14.3855 18.9993 17.9312C12.4285 14.3855 5.06918 14.3335 4.74935 14.3335C4.32942 14.3335 3.9267 14.5223 3.62976 14.8583C3.33283 15.1943 3.16602 15.65 3.16602 16.1252V33.8322C3.16602 34.0726 3.20877 34.3106 3.29174 34.5319C3.3747 34.7532 3.49618 34.9533 3.64893 35.1204C3.95768 35.4572 4.40893 35.6669 4.80318 35.6221L5.00427 35.6203C6.08568 35.6203 11.8063 35.7959 18.3296 39.2484C18.3549 39.2627 18.3834 39.2574 18.4088 39.2681C18.5972 39.3559 18.7951 39.4168 18.9993 39.4168C19.2036 39.4168 19.4015 39.3559 19.5915 39.2681C19.6168 39.2574 19.6453 39.2627 19.6707 39.2484C26.194 35.7941 31.9146 35.6203 32.996 35.6203L33.1971 35.6221C33.5739 35.6669 34.041 35.4572 34.3513 35.1204C34.6585 34.7818 34.8327 34.316 34.8327 33.8322V16.1252C34.8327 15.65 34.6659 15.1943 34.3689 14.8583C34.072 14.5223 33.6693 14.3335 33.2493 14.3335ZM6.33268 18.0046C8.68393 18.2035 13.2693 18.8646 17.416 21.0361V34.9072C12.666 32.802 8.56518 32.2305 6.33268 32.0835V18.0046ZM31.666 32.0835C29.4335 32.2305 25.3327 32.802 20.5827 34.9072V21.0361C24.7294 18.8646 29.3148 18.2035 31.666 18.0046V32.0835Z" fill="#CCCCCC"/>
<path d="M19 14.3335C21.6234 14.3335 23.75 11.927 23.75 8.9585C23.75 5.98997 21.6234 3.5835 19 3.5835C16.3766 3.5835 14.25 5.98997 14.25 8.9585C14.25 11.927 16.3766 14.3335 19 14.3335Z" fill="#CCCCCC"/>
</svg>
