<svg width="201" height="9" viewBox="0 0 201 9" fill="none" xmlns="http://www.w3.org/2000/svg">
<path d="M5.83203 4.20117C5.83203 4.79362 5.76693 5.30143 5.63672 5.72461C5.51302 6.14128 5.35352 6.49284 5.1582 6.7793C4.96289 7.05924 4.74154 7.2806 4.49414 7.44336C4.25326 7.60612 4.01888 7.72982 3.79102 7.81445C3.56315 7.89258 3.35482 7.94466 3.16602 7.9707C2.97721 7.99023 2.83724 8 2.74609 8H0.0214844V0.802734H2.18945C2.79492 0.802734 3.32552 0.900391 3.78125 1.0957C4.24349 1.28451 4.62435 1.53841 4.92383 1.85742C5.22982 2.17643 5.45768 2.54102 5.60742 2.95117C5.75716 3.35482 5.83203 3.77148 5.83203 4.20117ZM2.35547 7.14062C3.14974 7.14062 3.72266 6.88672 4.07422 6.37891C4.42578 5.87109 4.60156 5.13542 4.60156 4.17188C4.60156 3.8724 4.56576 3.57617 4.49414 3.2832C4.42253 2.99023 4.28255 2.72656 4.07422 2.49219C3.8724 2.2513 3.5957 2.05924 3.24414 1.91602C2.89258 1.76628 2.43685 1.69141 1.87695 1.69141H1.19336V7.14062H2.35547ZM9.125 8H7.93359V2.49219H9.125V8ZM9.23242 0.734375C9.23242 0.929688 9.16406 1.0957 9.02734 1.23242C8.89062 1.36263 8.72461 1.42773 8.5293 1.42773C8.33398 1.42773 8.16797 1.35938 8.03125 1.22266C7.90104 1.08594 7.83594 0.923177 7.83594 0.734375C7.83594 0.539062 7.9043 0.373047 8.04102 0.236328C8.17773 0.0996094 8.34049 0.03125 8.5293 0.03125C8.72461 0.03125 8.89062 0.0996094 9.02734 0.236328C9.16406 0.373047 9.23242 0.539062 9.23242 0.734375ZM14.3809 3.68359C14.1986 3.63151 13.9772 3.60221 13.7168 3.5957C13.4824 3.5957 13.248 3.625 13.0137 3.68359C12.7858 3.73568 12.6035 3.82682 12.4668 3.95703V6.04688V6.06641V8H11.2852V2.49219H12.3398L12.4668 3.05859C12.5645 2.96094 12.6654 2.87305 12.7695 2.79492C12.8802 2.7168 13.0072 2.65495 13.1504 2.60938C13.2936 2.55729 13.4629 2.51823 13.6582 2.49219C13.8535 2.46615 14.0944 2.45312 14.3809 2.45312V3.68359ZM18.4453 2.43359C18.888 2.43359 19.2786 2.52474 19.6172 2.70703C19.9557 2.88281 20.2324 3.12044 20.4473 3.41992C20.6686 3.71289 20.8249 4.05469 20.916 4.44531C21.0137 4.82943 21.0332 5.22982 20.9746 5.64648H17.1465C17.1465 5.85482 17.1855 6.04688 17.2637 6.22266C17.3418 6.39844 17.446 6.55143 17.5762 6.68164C17.7129 6.80534 17.8724 6.90299 18.0547 6.97461C18.2435 7.04622 18.4453 7.08203 18.6602 7.08203C18.7318 7.08203 18.8197 7.07552 18.9238 7.0625C19.0345 7.04297 19.1484 7.01367 19.2656 6.97461C19.3893 6.92904 19.5098 6.8737 19.627 6.80859C19.7507 6.74349 19.8581 6.66536 19.9492 6.57422L20.3789 7.22852C20.1641 7.49544 19.9134 7.69727 19.627 7.83398C19.3405 7.9707 18.9759 8.03906 18.5332 8.03906C18.1751 8.03906 17.8398 7.96745 17.5273 7.82422C17.2148 7.67448 16.9479 7.47266 16.7266 7.21875C16.5052 6.96484 16.3294 6.66862 16.1992 6.33008C16.069 5.99154 16.0039 5.62695 16.0039 5.23633C16.0039 4.85221 16.069 4.49089 16.1992 4.15234C16.3294 3.80729 16.502 3.50781 16.7168 3.25391C16.9382 3 17.1986 2.80143 17.498 2.6582C17.7975 2.50846 18.1133 2.43359 18.4453 2.43359ZM19.8809 4.78711C19.8809 4.61133 19.8483 4.4388 19.7832 4.26953C19.7181 4.10026 19.627 3.94727 19.5098 3.81055C19.3991 3.67383 19.2624 3.56641 19.0996 3.48828C18.9368 3.40365 18.7611 3.35807 18.5723 3.35156C18.3704 3.35156 18.1849 3.39062 18.0156 3.46875C17.8464 3.54688 17.6999 3.65104 17.5762 3.78125C17.4525 3.91146 17.3548 4.06771 17.2832 4.25C17.2181 4.42578 17.1855 4.60482 17.1855 4.78711H19.8809ZM27.207 7.22852C26.9857 7.50846 26.7448 7.7168 26.4844 7.85352C26.224 7.98372 25.8919 8.04883 25.4883 8.04883C25.1042 8.04883 24.7559 7.97721 24.4434 7.83398C24.1309 7.68424 23.8639 7.48568 23.6426 7.23828C23.4212 6.98438 23.252 6.68815 23.1348 6.34961C23.0241 6.01107 22.9688 5.64323 22.9688 5.24609C22.9688 4.85547 23.0306 4.49089 23.1543 4.15234C23.278 3.8138 23.4505 3.52083 23.6719 3.27344C23.8932 3.01953 24.1602 2.82096 24.4727 2.67773C24.7852 2.53451 25.1335 2.46289 25.5176 2.46289C25.9212 2.46289 26.2663 2.53125 26.5527 2.66797C26.8392 2.79818 27.0931 3.00326 27.3145 3.2832L26.7871 3.91797C26.6764 3.78776 26.5234 3.67057 26.3281 3.56641C26.1328 3.45573 25.8659 3.40039 25.5273 3.40039C25.332 3.40039 25.153 3.44596 24.9902 3.53711C24.8275 3.62826 24.6875 3.75521 24.5703 3.91797C24.4596 4.08073 24.3717 4.27279 24.3066 4.49414C24.248 4.71549 24.2188 4.95638 24.2188 5.2168C24.2188 5.47721 24.2448 5.72135 24.2969 5.94922C24.3555 6.17057 24.4401 6.36589 24.5508 6.53516C24.6615 6.70443 24.7917 6.83789 24.9414 6.93555C25.0977 7.0332 25.2767 7.08203 25.4785 7.08203C25.7715 7.08203 26.0156 7.03646 26.2109 6.94531C26.4128 6.84766 26.5983 6.73047 26.7676 6.59375L27.207 7.22852ZM33.4199 7.22852C33.1986 7.50846 32.9577 7.7168 32.6973 7.85352C32.4368 7.98372 32.1048 8.04883 31.7012 8.04883C31.3171 8.04883 30.9688 7.97721 30.6562 7.83398C30.3438 7.68424 30.0768 7.48568 29.8555 7.23828C29.6341 6.98438 29.4648 6.68815 29.3477 6.34961C29.237 6.01107 29.1816 5.64323 29.1816 5.24609C29.1816 4.85547 29.2435 4.49089 29.3672 4.15234C29.4909 3.8138 29.6634 3.52083 29.8848 3.27344C30.1061 3.01953 30.373 2.82096 30.6855 2.67773C30.998 2.53451 31.3464 2.46289 31.7305 2.46289C32.1341 2.46289 32.4792 2.53125 32.7656 2.66797C33.0521 2.79818 33.306 3.00326 33.5273 3.2832L33 3.91797C32.8893 3.78776 32.7363 3.67057 32.541 3.56641C32.3457 3.45573 32.0788 3.40039 31.7402 3.40039C31.5449 3.40039 31.3659 3.44596 31.2031 3.53711C31.0404 3.62826 30.9004 3.75521 30.7832 3.91797C30.6725 4.08073 30.5846 4.27279 30.5195 4.49414C30.4609 4.71549 30.4316 4.95638 30.4316 5.2168C30.4316 5.47721 30.4577 5.72135 30.5098 5.94922C30.5684 6.17057 30.653 6.36589 30.7637 6.53516C30.8743 6.70443 31.0046 6.83789 31.1543 6.93555C31.3105 7.0332 31.4896 7.08203 31.6914 7.08203C31.9844 7.08203 32.2285 7.03646 32.4238 6.94531C32.6257 6.84766 32.8112 6.73047 32.9805 6.59375L33.4199 7.22852ZM36.7324 8H35.541V2.49219H36.7324V8ZM36.8398 0.734375C36.8398 0.929688 36.7715 1.0957 36.6348 1.23242C36.498 1.36263 36.332 1.42773 36.1367 1.42773C35.9414 1.42773 35.7754 1.35938 35.6387 1.22266C35.5085 1.08594 35.4434 0.923177 35.4434 0.734375C35.4434 0.539062 35.5117 0.373047 35.6484 0.236328C35.7852 0.0996094 35.9479 0.03125 36.1367 0.03125C36.332 0.03125 36.498 0.0996094 36.6348 0.236328C36.7715 0.373047 36.8398 0.539062 36.8398 0.734375ZM41.3438 2.46289C41.7214 2.46289 42.0632 2.53776 42.3691 2.6875C42.6751 2.83073 42.9355 3.0293 43.1504 3.2832C43.3652 3.53711 43.5312 3.83333 43.6484 4.17188C43.7656 4.51042 43.8242 4.875 43.8242 5.26562C43.8242 5.65625 43.7624 6.02409 43.6387 6.36914C43.515 6.70768 43.3392 7.00391 43.1113 7.25781C42.89 7.50521 42.623 7.70052 42.3105 7.84375C42.0046 7.98047 41.6628 8.04883 41.2852 8.04883C40.901 8.04883 40.5495 7.97721 40.2305 7.83398C39.918 7.69076 39.651 7.49219 39.4297 7.23828C39.2148 6.98438 39.0488 6.68815 38.9316 6.34961C38.8145 6.01107 38.7559 5.64323 38.7559 5.24609C38.7559 4.84896 38.8177 4.47786 38.9414 4.13281C39.0716 3.78776 39.2474 3.49479 39.4688 3.25391C39.6966 3.00651 39.9701 2.81445 40.2891 2.67773C40.6081 2.53451 40.9596 2.46289 41.3438 2.46289ZM41.2656 7.12109C41.4609 7.12109 41.6367 7.07552 41.793 6.98438C41.9557 6.88672 42.0924 6.75651 42.2031 6.59375C42.3203 6.42448 42.4115 6.22591 42.4766 5.99805C42.5482 5.77018 42.584 5.52604 42.584 5.26562C42.584 5.00521 42.5514 4.76107 42.4863 4.5332C42.4277 4.30534 42.3431 4.10677 42.2324 3.9375C42.1283 3.76172 41.998 3.62174 41.8418 3.51758C41.6855 3.41341 41.5098 3.36133 41.3145 3.36133C41.1191 3.36133 40.9401 3.41016 40.7773 3.50781C40.6146 3.60547 40.4746 3.73893 40.3574 3.9082C40.2467 4.07096 40.1589 4.26628 40.0938 4.49414C40.0352 4.71549 40.0059 4.95638 40.0059 5.2168C40.0059 5.47721 40.0319 5.72461 40.084 5.95898C40.1426 6.18685 40.2272 6.38542 40.3379 6.55469C40.4486 6.72396 40.5788 6.86068 40.7285 6.96484C40.8848 7.06901 41.0638 7.12109 41.2656 7.12109ZM42.2129 0.412109L41.1484 1.79883H40.3672L41.0215 0.412109H42.2129ZM50.418 8H49.2266V5.00195C49.2266 4.7806 49.2168 4.56901 49.1973 4.36719C49.1777 4.16536 49.1322 3.98633 49.0605 3.83008C48.9889 3.67383 48.8913 3.55339 48.7676 3.46875C48.6439 3.3776 48.4714 3.33203 48.25 3.33203C48.1784 3.33203 48.084 3.3418 47.9668 3.36133C47.8561 3.38086 47.7389 3.41016 47.6152 3.44922C47.498 3.48828 47.3841 3.53711 47.2734 3.5957C47.1693 3.6543 47.0911 3.72266 47.0391 3.80078V3.85938V3.87891V6.04688V6.06641V8H45.8574V2.49219H46.9121L47.0391 3.04883C47.1172 2.97721 47.2148 2.9056 47.332 2.83398C47.4557 2.75586 47.5892 2.6875 47.7324 2.62891C47.8757 2.57031 48.0221 2.52474 48.1719 2.49219C48.3216 2.45312 48.4681 2.43359 48.6113 2.43359C48.9043 2.43359 49.1517 2.49544 49.3535 2.61914C49.5553 2.74284 49.7572 2.90234 49.959 3.09766C50.0697 3.20833 50.1543 3.33854 50.2129 3.48828C50.278 3.63151 50.3236 3.78451 50.3496 3.94727C50.3822 4.10352 50.4017 4.26302 50.4082 4.42578C50.4147 4.58854 50.418 4.74805 50.418 4.9043V7.80469V8ZM60.9883 0.802734V8H59.7969L56.9746 3.03906V8H55.7832V0.802734H56.9746L59.7969 5.76367V0.802734H60.9883ZM67.2109 6.29102V6.36914C67.2109 6.42122 67.2142 6.49935 67.2207 6.60352C67.2272 6.70117 67.2402 6.80208 67.2598 6.90625C67.2793 7.01042 67.3086 7.10482 67.3477 7.18945C67.3932 7.27409 67.4518 7.32943 67.5234 7.35547L67.2109 8.00977C67.1263 8.00977 67.0352 7.99023 66.9375 7.95117C66.8464 7.91211 66.7552 7.85677 66.6641 7.78516C66.5794 7.71354 66.5046 7.63542 66.4395 7.55078C66.3809 7.45964 66.3353 7.36198 66.3027 7.25781C66.2572 7.36849 66.1758 7.47266 66.0586 7.57031C65.9479 7.66146 65.821 7.74609 65.6777 7.82422C65.5345 7.89583 65.3783 7.95117 65.209 7.99023C65.0462 8.0293 64.8932 8.04883 64.75 8.04883C64.5286 8.04883 64.3138 8.01953 64.1055 7.96094C63.9036 7.90234 63.7246 7.80794 63.5684 7.67773C63.4121 7.54753 63.2884 7.375 63.1973 7.16016C63.1126 6.94531 63.0703 6.68164 63.0703 6.36914C63.0703 6.06966 63.1322 5.8125 63.2559 5.59766C63.3861 5.3763 63.5488 5.19727 63.7441 5.06055C63.946 4.91732 64.1738 4.81315 64.4277 4.74805C64.6816 4.67643 64.9388 4.64062 65.1992 4.64062H66.0293C66.0293 4.32161 66.013 4.06771 65.9805 3.87891C65.9479 3.6901 65.8926 3.55339 65.8145 3.46875C65.7363 3.3776 65.6387 3.32227 65.5215 3.30273C65.4108 3.27669 65.2773 3.26367 65.1211 3.26367C64.9779 3.26367 64.8411 3.2832 64.7109 3.32227C64.5872 3.35482 64.4701 3.39714 64.3594 3.44922C64.2552 3.49479 64.1608 3.54688 64.0762 3.60547C63.998 3.66406 63.9395 3.70964 63.9004 3.74219L63.4609 3.06836C63.526 2.99674 63.6237 2.92513 63.7539 2.85352C63.8841 2.77539 64.0339 2.70703 64.2031 2.64844C64.3724 2.58984 64.5547 2.54427 64.75 2.51172C64.9518 2.47266 65.1602 2.45312 65.375 2.45312C65.5703 2.45312 65.7591 2.47266 65.9414 2.51172C66.1302 2.55078 66.2995 2.61589 66.4492 2.70703C66.6055 2.79818 66.7389 2.92188 66.8496 3.07812C66.9668 3.22786 67.0482 3.41667 67.0938 3.64453C67.1393 3.8724 67.1686 4.10352 67.1816 4.33789C67.2012 4.56576 67.2109 4.79362 67.2109 5.02148V6.29102ZM66.0391 5.33398H65.4141C65.2839 5.33398 65.1471 5.34701 65.0039 5.37305C64.8607 5.39909 64.7272 5.44792 64.6035 5.51953C64.4798 5.59115 64.3757 5.69531 64.291 5.83203C64.2129 5.96224 64.1738 6.13151 64.1738 6.33984C64.1738 6.66536 64.2454 6.89974 64.3887 7.04297C64.5384 7.1862 64.7533 7.25781 65.0332 7.25781C65.2285 7.25781 65.4141 7.20573 65.5898 7.10156C65.7721 6.9974 65.9219 6.85742 66.0391 6.68164V5.33398ZM73.6582 7.22852C73.4368 7.50846 73.196 7.7168 72.9355 7.85352C72.6751 7.98372 72.3431 8.04883 71.9395 8.04883C71.5553 8.04883 71.207 7.97721 70.8945 7.83398C70.582 7.68424 70.3151 7.48568 70.0938 7.23828C69.8724 6.98438 69.7031 6.68815 69.5859 6.34961C69.4753 6.01107 69.4199 5.64323 69.4199 5.24609C69.4199 4.85547 69.4818 4.49089 69.6055 4.15234C69.7292 3.8138 69.9017 3.52083 70.123 3.27344C70.3444 3.01953 70.6113 2.82096 70.9238 2.67773C71.2363 2.53451 71.5846 2.46289 71.9688 2.46289C72.3724 2.46289 72.7174 2.53125 73.0039 2.66797C73.2904 2.79818 73.5443 3.00326 73.7656 3.2832L73.2383 3.91797C73.1276 3.78776 72.9746 3.67057 72.7793 3.56641C72.584 3.45573 72.3171 3.40039 71.9785 3.40039C71.7832 3.40039 71.6042 3.44596 71.4414 3.53711C71.2786 3.62826 71.1387 3.75521 71.0215 3.91797C70.9108 4.08073 70.8229 4.27279 70.7578 4.49414C70.6992 4.71549 70.6699 4.95638 70.6699 5.2168C70.6699 5.47721 70.696 5.72135 70.748 5.94922C70.8066 6.17057 70.8913 6.36589 71.002 6.53516C71.1126 6.70443 71.2428 6.83789 71.3926 6.93555C71.5488 7.0332 71.7279 7.08203 71.9297 7.08203C72.2227 7.08203 72.4668 7.03646 72.6621 6.94531C72.8639 6.84766 73.0495 6.73047 73.2188 6.59375L73.6582 7.22852ZM76.9707 8H75.7793V2.49219H76.9707V8ZM77.0781 0.734375C77.0781 0.929688 77.0098 1.0957 76.873 1.23242C76.7363 1.36263 76.5703 1.42773 76.375 1.42773C76.1797 1.42773 76.0137 1.35938 75.877 1.22266C75.7467 1.08594 75.6816 0.923177 75.6816 0.734375C75.6816 0.539062 75.75 0.373047 75.8867 0.236328C76.0234 0.0996094 76.1862 0.03125 76.375 0.03125C76.5703 0.03125 76.7363 0.0996094 76.873 0.236328C77.0098 0.373047 77.0781 0.539062 77.0781 0.734375ZM81.582 2.46289C81.9596 2.46289 82.3014 2.53776 82.6074 2.6875C82.9134 2.83073 83.1738 3.0293 83.3887 3.2832C83.6035 3.53711 83.7695 3.83333 83.8867 4.17188C84.0039 4.51042 84.0625 4.875 84.0625 5.26562C84.0625 5.65625 84.0007 6.02409 83.877 6.36914C83.7533 6.70768 83.5775 7.00391 83.3496 7.25781C83.1283 7.50521 82.8613 7.70052 82.5488 7.84375C82.2428 7.98047 81.901 8.04883 81.5234 8.04883C81.1393 8.04883 80.7878 7.97721 80.4688 7.83398C80.1562 7.69076 79.8893 7.49219 79.668 7.23828C79.4531 6.98438 79.2871 6.68815 79.1699 6.34961C79.0527 6.01107 78.9941 5.64323 78.9941 5.24609C78.9941 4.84896 79.056 4.47786 79.1797 4.13281C79.3099 3.78776 79.4857 3.49479 79.707 3.25391C79.9349 3.00651 80.2083 2.81445 80.5273 2.67773C80.8464 2.53451 81.1979 2.46289 81.582 2.46289ZM81.5039 7.12109C81.6992 7.12109 81.875 7.07552 82.0312 6.98438C82.194 6.88672 82.3307 6.75651 82.4414 6.59375C82.5586 6.42448 82.6497 6.22591 82.7148 5.99805C82.7865 5.77018 82.8223 5.52604 82.8223 5.26562C82.8223 5.00521 82.7897 4.76107 82.7246 4.5332C82.666 4.30534 82.5814 4.10677 82.4707 3.9375C82.3665 3.76172 82.2363 3.62174 82.0801 3.51758C81.9238 3.41341 81.748 3.36133 81.5527 3.36133C81.3574 3.36133 81.1784 3.41016 81.0156 3.50781C80.8529 3.60547 80.7129 3.73893 80.5957 3.9082C80.485 4.07096 80.3971 4.26628 80.332 4.49414C80.2734 4.71549 80.2441 4.95638 80.2441 5.2168C80.2441 5.47721 80.2702 5.72461 80.3223 5.95898C80.3809 6.18685 80.4655 6.38542 80.5762 6.55469C80.6868 6.72396 80.8171 6.86068 80.9668 6.96484C81.123 7.06901 81.3021 7.12109 81.5039 7.12109ZM90.6562 8H89.4648V5.00195C89.4648 4.7806 89.4551 4.56901 89.4355 4.36719C89.416 4.16536 89.3704 3.98633 89.2988 3.83008C89.2272 3.67383 89.1296 3.55339 89.0059 3.46875C88.8822 3.3776 88.7096 3.33203 88.4883 3.33203C88.4167 3.33203 88.3223 3.3418 88.2051 3.36133C88.0944 3.38086 87.9772 3.41016 87.8535 3.44922C87.7363 3.48828 87.6224 3.53711 87.5117 3.5957C87.4076 3.6543 87.3294 3.72266 87.2773 3.80078V3.85938V3.87891V6.04688V6.06641V8H86.0957V2.49219H87.1504L87.2773 3.04883C87.3555 2.97721 87.4531 2.9056 87.5703 2.83398C87.694 2.75586 87.8275 2.6875 87.9707 2.62891C88.1139 2.57031 88.2604 2.52474 88.4102 2.49219C88.5599 2.45312 88.7064 2.43359 88.8496 2.43359C89.1426 2.43359 89.39 2.49544 89.5918 2.61914C89.7936 2.74284 89.9954 2.90234 90.1973 3.09766C90.3079 3.20833 90.3926 3.33854 90.4512 3.48828C90.5163 3.63151 90.5618 3.78451 90.5879 3.94727C90.6204 4.10352 90.64 4.26302 90.6465 4.42578C90.653 4.58854 90.6562 4.74805 90.6562 4.9043V7.80469V8ZM96.7812 6.29102V6.36914C96.7812 6.42122 96.7845 6.49935 96.791 6.60352C96.7975 6.70117 96.8105 6.80208 96.8301 6.90625C96.8496 7.01042 96.8789 7.10482 96.918 7.18945C96.9635 7.27409 97.0221 7.32943 97.0938 7.35547L96.7812 8.00977C96.6966 8.00977 96.6055 7.99023 96.5078 7.95117C96.4167 7.91211 96.3255 7.85677 96.2344 7.78516C96.1497 7.71354 96.0749 7.63542 96.0098 7.55078C95.9512 7.45964 95.9056 7.36198 95.873 7.25781C95.8275 7.36849 95.7461 7.47266 95.6289 7.57031C95.5182 7.66146 95.3913 7.74609 95.248 7.82422C95.1048 7.89583 94.9486 7.95117 94.7793 7.99023C94.6165 8.0293 94.4635 8.04883 94.3203 8.04883C94.099 8.04883 93.8841 8.01953 93.6758 7.96094C93.474 7.90234 93.2949 7.80794 93.1387 7.67773C92.9824 7.54753 92.8587 7.375 92.7676 7.16016C92.6829 6.94531 92.6406 6.68164 92.6406 6.36914C92.6406 6.06966 92.7025 5.8125 92.8262 5.59766C92.9564 5.3763 93.1191 5.19727 93.3145 5.06055C93.5163 4.91732 93.7441 4.81315 93.998 4.74805C94.252 4.67643 94.5091 4.64062 94.7695 4.64062H95.5996C95.5996 4.32161 95.5833 4.06771 95.5508 3.87891C95.5182 3.6901 95.4629 3.55339 95.3848 3.46875C95.3066 3.3776 95.209 3.32227 95.0918 3.30273C94.9811 3.27669 94.8477 3.26367 94.6914 3.26367C94.5482 3.26367 94.4115 3.2832 94.2812 3.32227C94.1576 3.35482 94.0404 3.39714 93.9297 3.44922C93.8255 3.49479 93.7311 3.54688 93.6465 3.60547C93.5684 3.66406 93.5098 3.70964 93.4707 3.74219L93.0312 3.06836C93.0964 2.99674 93.194 2.92513 93.3242 2.85352C93.4544 2.77539 93.6042 2.70703 93.7734 2.64844C93.9427 2.58984 94.125 2.54427 94.3203 2.51172C94.5221 2.47266 94.7305 2.45312 94.9453 2.45312C95.1406 2.45312 95.3294 2.47266 95.5117 2.51172C95.7005 2.55078 95.8698 2.61589 96.0195 2.70703C96.1758 2.79818 96.3092 2.92188 96.4199 3.07812C96.5371 3.22786 96.6185 3.41667 96.6641 3.64453C96.7096 3.8724 96.7389 4.10352 96.752 4.33789C96.7715 4.56576 96.7812 4.79362 96.7812 5.02148V6.29102ZM95.6094 5.33398H94.9844C94.8542 5.33398 94.7174 5.34701 94.5742 5.37305C94.431 5.39909 94.2975 5.44792 94.1738 5.51953C94.0501 5.59115 93.946 5.69531 93.8613 5.83203C93.7832 5.96224 93.7441 6.13151 93.7441 6.33984C93.7441 6.66536 93.8158 6.89974 93.959 7.04297C94.1087 7.1862 94.3236 7.25781 94.6035 7.25781C94.7988 7.25781 94.9844 7.20573 95.1602 7.10156C95.3424 6.9974 95.4922 6.85742 95.6094 6.68164V5.33398ZM100.318 6.32031C100.318 6.54167 100.348 6.71745 100.406 6.84766C100.465 6.97135 100.546 7.06576 100.65 7.13086C100.755 7.18945 100.872 7.22852 101.002 7.24805C101.139 7.26758 101.285 7.27734 101.441 7.27734V8C101.357 8.01302 101.269 8.02279 101.178 8.0293C101.106 8.03581 101.021 8.03906 100.924 8.03906C100.826 8.04557 100.729 8.04883 100.631 8.04883C100.533 8.04883 100.436 8.04557 100.338 8.03906C100.24 8.03255 100.152 8.02279 100.074 8.00977C99.8529 7.96419 99.6803 7.86654 99.5566 7.7168C99.4329 7.56706 99.3385 7.40104 99.2734 7.21875C99.2083 7.02995 99.166 6.84766 99.1465 6.67188C99.1335 6.49609 99.127 6.35938 99.127 6.26172V6.14453V0.412109H100.318V6.32031ZM106.738 7.44336C106.491 7.16341 106.309 6.81836 106.191 6.4082C106.074 5.99805 106.016 5.58464 106.016 5.16797C106.016 4.66016 106.084 4.23372 106.221 3.88867C106.364 3.54362 106.546 3.26367 106.768 3.04883C106.989 2.83398 107.233 2.68099 107.5 2.58984C107.773 2.49219 108.04 2.44336 108.301 2.44336C108.62 2.44336 108.91 2.4987 109.17 2.60938C109.437 2.72005 109.635 2.86654 109.766 3.04883V0.412109H110.957V8H109.834C109.821 7.88932 109.808 7.77865 109.795 7.66797C109.788 7.55078 109.779 7.44336 109.766 7.3457C109.746 7.43034 109.688 7.51497 109.59 7.59961C109.499 7.68424 109.378 7.76237 109.229 7.83398C109.085 7.89909 108.923 7.95117 108.74 7.99023C108.558 8.0293 108.369 8.04883 108.174 8.04883C107.913 8.04883 107.656 8.00326 107.402 7.91211C107.155 7.82096 106.934 7.66471 106.738 7.44336ZM107.266 5.25586C107.266 5.51628 107.298 5.76042 107.363 5.98828C107.428 6.20964 107.516 6.40495 107.627 6.57422C107.738 6.74349 107.871 6.87695 108.027 6.97461C108.19 7.07227 108.366 7.12109 108.555 7.12109C108.757 7.12109 108.936 7.07227 109.092 6.97461C109.255 6.87044 109.391 6.73372 109.502 6.56445C109.613 6.39518 109.697 6.19661 109.756 5.96875C109.814 5.74089 109.844 5.49674 109.844 5.23633C109.844 4.97591 109.811 4.73177 109.746 4.50391C109.688 4.27604 109.6 4.07747 109.482 3.9082C109.372 3.73893 109.235 3.60547 109.072 3.50781C108.916 3.40365 108.737 3.35156 108.535 3.35156C108.333 3.35156 108.154 3.40365 107.998 3.50781C107.842 3.60547 107.708 3.74219 107.598 3.91797C107.493 4.09375 107.412 4.29557 107.354 4.52344C107.295 4.7513 107.266 4.99544 107.266 5.25586ZM115.432 2.43359C115.874 2.43359 116.265 2.52474 116.604 2.70703C116.942 2.88281 117.219 3.12044 117.434 3.41992C117.655 3.71289 117.811 4.05469 117.902 4.44531C118 4.82943 118.02 5.22982 117.961 5.64648H114.133C114.133 5.85482 114.172 6.04688 114.25 6.22266C114.328 6.39844 114.432 6.55143 114.562 6.68164C114.699 6.80534 114.859 6.90299 115.041 6.97461C115.23 7.04622 115.432 7.08203 115.646 7.08203C115.718 7.08203 115.806 7.07552 115.91 7.0625C116.021 7.04297 116.135 7.01367 116.252 6.97461C116.376 6.92904 116.496 6.8737 116.613 6.80859C116.737 6.74349 116.844 6.66536 116.936 6.57422L117.365 7.22852C117.15 7.49544 116.9 7.69727 116.613 7.83398C116.327 7.9707 115.962 8.03906 115.52 8.03906C115.161 8.03906 114.826 7.96745 114.514 7.82422C114.201 7.67448 113.934 7.47266 113.713 7.21875C113.492 6.96484 113.316 6.66862 113.186 6.33008C113.055 5.99154 112.99 5.62695 112.99 5.23633C112.99 4.85221 113.055 4.49089 113.186 4.15234C113.316 3.80729 113.488 3.50781 113.703 3.25391C113.924 3 114.185 2.80143 114.484 2.6582C114.784 2.50846 115.1 2.43359 115.432 2.43359ZM116.867 4.78711C116.867 4.61133 116.835 4.4388 116.77 4.26953C116.704 4.10026 116.613 3.94727 116.496 3.81055C116.385 3.67383 116.249 3.56641 116.086 3.48828C115.923 3.40365 115.747 3.35807 115.559 3.35156C115.357 3.35156 115.171 3.39062 115.002 3.46875C114.833 3.54688 114.686 3.65104 114.562 3.78125C114.439 3.91146 114.341 4.06771 114.27 4.25C114.204 4.42578 114.172 4.60482 114.172 4.78711H116.867ZM128.805 0.802734H129.996V8H128.805V3.04883L127.193 7.05273H126.158L124.537 3.04883V8H123.346V0.802734H124.537L126.676 5.72461L128.805 0.802734ZM134.539 2.43359C134.982 2.43359 135.372 2.52474 135.711 2.70703C136.049 2.88281 136.326 3.12044 136.541 3.41992C136.762 3.71289 136.919 4.05469 137.01 4.44531C137.107 4.82943 137.127 5.22982 137.068 5.64648H133.24C133.24 5.85482 133.279 6.04688 133.357 6.22266C133.436 6.39844 133.54 6.55143 133.67 6.68164C133.807 6.80534 133.966 6.90299 134.148 6.97461C134.337 7.04622 134.539 7.08203 134.754 7.08203C134.826 7.08203 134.913 7.07552 135.018 7.0625C135.128 7.04297 135.242 7.01367 135.359 6.97461C135.483 6.92904 135.604 6.8737 135.721 6.80859C135.844 6.74349 135.952 6.66536 136.043 6.57422L136.473 7.22852C136.258 7.49544 136.007 7.69727 135.721 7.83398C135.434 7.9707 135.07 8.03906 134.627 8.03906C134.269 8.03906 133.934 7.96745 133.621 7.82422C133.309 7.67448 133.042 7.47266 132.82 7.21875C132.599 6.96484 132.423 6.66862 132.293 6.33008C132.163 5.99154 132.098 5.62695 132.098 5.23633C132.098 4.85221 132.163 4.49089 132.293 4.15234C132.423 3.80729 132.596 3.50781 132.811 3.25391C133.032 3 133.292 2.80143 133.592 2.6582C133.891 2.50846 134.207 2.43359 134.539 2.43359ZM135.975 4.78711C135.975 4.61133 135.942 4.4388 135.877 4.26953C135.812 4.10026 135.721 3.94727 135.604 3.81055C135.493 3.67383 135.356 3.56641 135.193 3.48828C135.031 3.40365 134.855 3.35807 134.666 3.35156C134.464 3.35156 134.279 3.39062 134.109 3.46875C133.94 3.54688 133.794 3.65104 133.67 3.78125C133.546 3.91146 133.449 4.06771 133.377 4.25C133.312 4.42578 133.279 4.60482 133.279 4.78711H135.975ZM139.59 7.44336C139.342 7.16341 139.16 6.81836 139.043 6.4082C138.926 5.99805 138.867 5.58464 138.867 5.16797C138.867 4.66016 138.936 4.23372 139.072 3.88867C139.215 3.54362 139.398 3.26367 139.619 3.04883C139.84 2.83398 140.085 2.68099 140.352 2.58984C140.625 2.49219 140.892 2.44336 141.152 2.44336C141.471 2.44336 141.761 2.4987 142.021 2.60938C142.288 2.72005 142.487 2.86654 142.617 3.04883V0.412109H143.809V8H142.686C142.673 7.88932 142.66 7.77865 142.646 7.66797C142.64 7.55078 142.63 7.44336 142.617 7.3457C142.598 7.43034 142.539 7.51497 142.441 7.59961C142.35 7.68424 142.23 7.76237 142.08 7.83398C141.937 7.89909 141.774 7.95117 141.592 7.99023C141.41 8.0293 141.221 8.04883 141.025 8.04883C140.765 8.04883 140.508 8.00326 140.254 7.91211C140.007 7.82096 139.785 7.66471 139.59 7.44336ZM140.117 5.25586C140.117 5.51628 140.15 5.76042 140.215 5.98828C140.28 6.20964 140.368 6.40495 140.479 6.57422C140.589 6.74349 140.723 6.87695 140.879 6.97461C141.042 7.07227 141.217 7.12109 141.406 7.12109C141.608 7.12109 141.787 7.07227 141.943 6.97461C142.106 6.87044 142.243 6.73372 142.354 6.56445C142.464 6.39518 142.549 6.19661 142.607 5.96875C142.666 5.74089 142.695 5.49674 142.695 5.23633C142.695 4.97591 142.663 4.73177 142.598 4.50391C142.539 4.27604 142.451 4.07747 142.334 3.9082C142.223 3.73893 142.087 3.60547 141.924 3.50781C141.768 3.40365 141.589 3.35156 141.387 3.35156C141.185 3.35156 141.006 3.40365 140.85 3.50781C140.693 3.60547 140.56 3.74219 140.449 3.91797C140.345 4.09375 140.264 4.29557 140.205 4.52344C140.146 4.7513 140.117 4.99544 140.117 5.25586ZM147.16 8H145.969V2.49219H147.16V8ZM147.268 0.734375C147.268 0.929688 147.199 1.0957 147.062 1.23242C146.926 1.36263 146.76 1.42773 146.564 1.42773C146.369 1.42773 146.203 1.35938 146.066 1.22266C145.936 1.08594 145.871 0.923177 145.871 0.734375C145.871 0.539062 145.939 0.373047 146.076 0.236328C146.213 0.0996094 146.376 0.03125 146.564 0.03125C146.76 0.03125 146.926 0.0996094 147.062 0.236328C147.199 0.373047 147.268 0.539062 147.268 0.734375ZM153.402 7.22852C153.181 7.50846 152.94 7.7168 152.68 7.85352C152.419 7.98372 152.087 8.04883 151.684 8.04883C151.299 8.04883 150.951 7.97721 150.639 7.83398C150.326 7.68424 150.059 7.48568 149.838 7.23828C149.617 6.98438 149.447 6.68815 149.33 6.34961C149.219 6.01107 149.164 5.64323 149.164 5.24609C149.164 4.85547 149.226 4.49089 149.35 4.15234C149.473 3.8138 149.646 3.52083 149.867 3.27344C150.089 3.01953 150.355 2.82096 150.668 2.67773C150.98 2.53451 151.329 2.46289 151.713 2.46289C152.117 2.46289 152.462 2.53125 152.748 2.66797C153.035 2.79818 153.288 3.00326 153.51 3.2832L152.982 3.91797C152.872 3.78776 152.719 3.67057 152.523 3.56641C152.328 3.45573 152.061 3.40039 151.723 3.40039C151.527 3.40039 151.348 3.44596 151.186 3.53711C151.023 3.62826 150.883 3.75521 150.766 3.91797C150.655 4.08073 150.567 4.27279 150.502 4.49414C150.443 4.71549 150.414 4.95638 150.414 5.2168C150.414 5.47721 150.44 5.72135 150.492 5.94922C150.551 6.17057 150.635 6.36589 150.746 6.53516C150.857 6.70443 150.987 6.83789 151.137 6.93555C151.293 7.0332 151.472 7.08203 151.674 7.08203C151.967 7.08203 152.211 7.03646 152.406 6.94531C152.608 6.84766 152.794 6.73047 152.963 6.59375L153.402 7.22852ZM159.479 6.29102V6.36914C159.479 6.42122 159.482 6.49935 159.488 6.60352C159.495 6.70117 159.508 6.80208 159.527 6.90625C159.547 7.01042 159.576 7.10482 159.615 7.18945C159.661 7.27409 159.719 7.32943 159.791 7.35547L159.479 8.00977C159.394 8.00977 159.303 7.99023 159.205 7.95117C159.114 7.91211 159.023 7.85677 158.932 7.78516C158.847 7.71354 158.772 7.63542 158.707 7.55078C158.648 7.45964 158.603 7.36198 158.57 7.25781C158.525 7.36849 158.443 7.47266 158.326 7.57031C158.215 7.66146 158.089 7.74609 157.945 7.82422C157.802 7.89583 157.646 7.95117 157.477 7.99023C157.314 8.0293 157.161 8.04883 157.018 8.04883C156.796 8.04883 156.581 8.01953 156.373 7.96094C156.171 7.90234 155.992 7.80794 155.836 7.67773C155.68 7.54753 155.556 7.375 155.465 7.16016C155.38 6.94531 155.338 6.68164 155.338 6.36914C155.338 6.06966 155.4 5.8125 155.523 5.59766C155.654 5.3763 155.816 5.19727 156.012 5.06055C156.214 4.91732 156.441 4.81315 156.695 4.74805C156.949 4.67643 157.206 4.64062 157.467 4.64062H158.297C158.297 4.32161 158.281 4.06771 158.248 3.87891C158.215 3.6901 158.16 3.55339 158.082 3.46875C158.004 3.3776 157.906 3.32227 157.789 3.30273C157.678 3.27669 157.545 3.26367 157.389 3.26367C157.245 3.26367 157.109 3.2832 156.979 3.32227C156.855 3.35482 156.738 3.39714 156.627 3.44922C156.523 3.49479 156.428 3.54688 156.344 3.60547C156.266 3.66406 156.207 3.70964 156.168 3.74219L155.729 3.06836C155.794 2.99674 155.891 2.92513 156.021 2.85352C156.152 2.77539 156.301 2.70703 156.471 2.64844C156.64 2.58984 156.822 2.54427 157.018 2.51172C157.219 2.47266 157.428 2.45312 157.643 2.45312C157.838 2.45312 158.027 2.47266 158.209 2.51172C158.398 2.55078 158.567 2.61589 158.717 2.70703C158.873 2.79818 159.007 2.92188 159.117 3.07812C159.234 3.22786 159.316 3.41667 159.361 3.64453C159.407 3.8724 159.436 4.10352 159.449 4.33789C159.469 4.56576 159.479 4.79362 159.479 5.02148V6.29102ZM158.307 5.33398H157.682C157.551 5.33398 157.415 5.34701 157.271 5.37305C157.128 5.39909 156.995 5.44792 156.871 5.51953C156.747 5.59115 156.643 5.69531 156.559 5.83203C156.48 5.96224 156.441 6.13151 156.441 6.33984C156.441 6.66536 156.513 6.89974 156.656 7.04297C156.806 7.1862 157.021 7.25781 157.301 7.25781C157.496 7.25781 157.682 7.20573 157.857 7.10156C158.04 6.9974 158.189 6.85742 158.307 6.68164V5.33398ZM169.119 7.81445V8H167.947V5.00195C167.947 4.7806 167.944 4.57227 167.938 4.37695C167.938 4.17513 167.918 3.99609 167.879 3.83984C167.84 3.68359 167.775 3.56315 167.684 3.47852C167.599 3.38737 167.465 3.3418 167.283 3.3418C167.251 3.3418 167.192 3.34831 167.107 3.36133C167.029 3.36784 166.935 3.38737 166.824 3.41992C166.714 3.44596 166.59 3.49154 166.453 3.55664C166.323 3.62174 166.193 3.70638 166.062 3.81055C166.062 4.06445 166.062 4.26628 166.062 4.41602C166.069 4.56576 166.072 4.72852 166.072 4.9043V8H164.891V5.00195C164.891 4.7806 164.891 4.57227 164.891 4.37695C164.891 4.17513 164.871 3.99609 164.832 3.83984C164.793 3.68359 164.728 3.56315 164.637 3.47852C164.546 3.38737 164.412 3.3418 164.236 3.3418C164.178 3.3418 164.096 3.35156 163.992 3.37109C163.888 3.38411 163.777 3.41016 163.66 3.44922C163.549 3.48828 163.436 3.53711 163.318 3.5957C163.208 3.6543 163.113 3.72266 163.035 3.80078V8H161.844V2.49219H162.908L163.035 3.05859C163.198 2.90885 163.406 2.77214 163.66 2.64844C163.921 2.51823 164.191 2.45312 164.471 2.45312C164.783 2.45312 165.044 2.52148 165.252 2.6582C165.46 2.79492 165.669 2.99674 165.877 3.26367C165.988 3.13997 166.111 3.02604 166.248 2.92188C166.385 2.81771 166.525 2.72982 166.668 2.6582C166.818 2.58659 166.964 2.53125 167.107 2.49219C167.251 2.45312 167.387 2.43359 167.518 2.43359C167.739 2.43359 167.947 2.47917 168.143 2.57031C168.338 2.65495 168.507 2.77865 168.65 2.94141C168.8 3.10417 168.914 3.29948 168.992 3.52734C169.077 3.7487 169.119 3.98958 169.119 4.25V4.9043V7.81445ZM173.604 2.43359C174.046 2.43359 174.437 2.52474 174.775 2.70703C175.114 2.88281 175.391 3.12044 175.605 3.41992C175.827 3.71289 175.983 4.05469 176.074 4.44531C176.172 4.82943 176.191 5.22982 176.133 5.64648H172.305C172.305 5.85482 172.344 6.04688 172.422 6.22266C172.5 6.39844 172.604 6.55143 172.734 6.68164C172.871 6.80534 173.031 6.90299 173.213 6.97461C173.402 7.04622 173.604 7.08203 173.818 7.08203C173.89 7.08203 173.978 7.07552 174.082 7.0625C174.193 7.04297 174.307 7.01367 174.424 6.97461C174.548 6.92904 174.668 6.8737 174.785 6.80859C174.909 6.74349 175.016 6.66536 175.107 6.57422L175.537 7.22852C175.322 7.49544 175.072 7.69727 174.785 7.83398C174.499 7.9707 174.134 8.03906 173.691 8.03906C173.333 8.03906 172.998 7.96745 172.686 7.82422C172.373 7.67448 172.106 7.47266 171.885 7.21875C171.663 6.96484 171.488 6.66862 171.357 6.33008C171.227 5.99154 171.162 5.62695 171.162 5.23633C171.162 4.85221 171.227 4.49089 171.357 4.15234C171.488 3.80729 171.66 3.50781 171.875 3.25391C172.096 3 172.357 2.80143 172.656 2.6582C172.956 2.50846 173.271 2.43359 173.604 2.43359ZM175.039 4.78711C175.039 4.61133 175.007 4.4388 174.941 4.26953C174.876 4.10026 174.785 3.94727 174.668 3.81055C174.557 3.67383 174.421 3.56641 174.258 3.48828C174.095 3.40365 173.919 3.35807 173.73 3.35156C173.529 3.35156 173.343 3.39062 173.174 3.46875C173.005 3.54688 172.858 3.65104 172.734 3.78125C172.611 3.91146 172.513 4.06771 172.441 4.25C172.376 4.42578 172.344 4.60482 172.344 4.78711H175.039ZM182.844 8H181.652V5.00195C181.652 4.7806 181.643 4.56901 181.623 4.36719C181.604 4.16536 181.558 3.98633 181.486 3.83008C181.415 3.67383 181.317 3.55339 181.193 3.46875C181.07 3.3776 180.897 3.33203 180.676 3.33203C180.604 3.33203 180.51 3.3418 180.393 3.36133C180.282 3.38086 180.165 3.41016 180.041 3.44922C179.924 3.48828 179.81 3.53711 179.699 3.5957C179.595 3.6543 179.517 3.72266 179.465 3.80078V3.85938V3.87891V6.04688V6.06641V8H178.283V2.49219H179.338L179.465 3.04883C179.543 2.97721 179.641 2.9056 179.758 2.83398C179.882 2.75586 180.015 2.6875 180.158 2.62891C180.301 2.57031 180.448 2.52474 180.598 2.49219C180.747 2.45312 180.894 2.43359 181.037 2.43359C181.33 2.43359 181.577 2.49544 181.779 2.61914C181.981 2.74284 182.183 2.90234 182.385 3.09766C182.495 3.20833 182.58 3.33854 182.639 3.48828C182.704 3.63151 182.749 3.78451 182.775 3.94727C182.808 4.10352 182.827 4.26302 182.834 4.42578C182.84 4.58854 182.844 4.74805 182.844 4.9043V7.80469V8ZM186.547 6.33008C186.547 6.55143 186.576 6.72396 186.635 6.84766C186.693 6.97135 186.775 7.06576 186.879 7.13086C186.99 7.19596 187.11 7.23828 187.24 7.25781C187.377 7.27083 187.52 7.27734 187.67 7.27734V8C187.585 8.01302 187.501 8.02279 187.416 8.0293C187.344 8.03581 187.257 8.03906 187.152 8.03906C187.055 8.04557 186.957 8.04883 186.859 8.04883C186.762 8.04883 186.661 8.04557 186.557 8.03906C186.459 8.03255 186.374 8.02279 186.303 8.00977C186.081 7.9707 185.909 7.8763 185.785 7.72656C185.661 7.57031 185.567 7.40104 185.502 7.21875C185.443 7.02995 185.404 6.84766 185.385 6.67188C185.372 6.49609 185.365 6.35938 185.365 6.26172V3.29297H184.643V2.49219H185.365V0.929688H186.547V2.49219H187.426V3.29297H186.547V6.33008ZM192.008 2.46289C192.385 2.46289 192.727 2.53776 193.033 2.6875C193.339 2.83073 193.6 3.0293 193.814 3.2832C194.029 3.53711 194.195 3.83333 194.312 4.17188C194.43 4.51042 194.488 4.875 194.488 5.26562C194.488 5.65625 194.426 6.02409 194.303 6.36914C194.179 6.70768 194.003 7.00391 193.775 7.25781C193.554 7.50521 193.287 7.70052 192.975 7.84375C192.669 7.98047 192.327 8.04883 191.949 8.04883C191.565 8.04883 191.214 7.97721 190.895 7.83398C190.582 7.69076 190.315 7.49219 190.094 7.23828C189.879 6.98438 189.713 6.68815 189.596 6.34961C189.479 6.01107 189.42 5.64323 189.42 5.24609C189.42 4.84896 189.482 4.47786 189.605 4.13281C189.736 3.78776 189.911 3.49479 190.133 3.25391C190.361 3.00651 190.634 2.81445 190.953 2.67773C191.272 2.53451 191.624 2.46289 192.008 2.46289ZM191.93 7.12109C192.125 7.12109 192.301 7.07552 192.457 6.98438C192.62 6.88672 192.757 6.75651 192.867 6.59375C192.984 6.42448 193.076 6.22591 193.141 5.99805C193.212 5.77018 193.248 5.52604 193.248 5.26562C193.248 5.00521 193.215 4.76107 193.15 4.5332C193.092 4.30534 193.007 4.10677 192.896 3.9375C192.792 3.76172 192.662 3.62174 192.506 3.51758C192.35 3.41341 192.174 3.36133 191.979 3.36133C191.783 3.36133 191.604 3.41016 191.441 3.50781C191.279 3.60547 191.139 3.73893 191.021 3.9082C190.911 4.07096 190.823 4.26628 190.758 4.49414C190.699 4.71549 190.67 4.95638 190.67 5.2168C190.67 5.47721 190.696 5.72461 190.748 5.95898C190.807 6.18685 190.891 6.38542 191.002 6.55469C191.113 6.72396 191.243 6.86068 191.393 6.96484C191.549 7.06901 191.728 7.12109 191.93 7.12109ZM196.414 7.56055L196.912 6.76953C197.042 6.86068 197.195 6.94531 197.371 7.02344C197.553 7.10156 197.781 7.14062 198.055 7.14062C198.413 7.14062 198.693 7.08529 198.895 6.97461C199.096 6.86393 199.197 6.70117 199.197 6.48633C199.197 6.33008 199.139 6.20638 199.021 6.11523C198.904 6.01758 198.755 5.9362 198.572 5.87109C198.396 5.79948 198.204 5.73438 197.996 5.67578C197.794 5.61068 197.605 5.53255 197.43 5.44141C197.085 5.25911 196.824 5.06706 196.648 4.86523C196.479 4.66341 196.395 4.39648 196.395 4.06445C196.395 3.79102 196.45 3.55013 196.561 3.3418C196.678 3.13346 196.827 2.96094 197.01 2.82422C197.192 2.68099 197.4 2.57357 197.635 2.50195C197.869 2.43034 198.107 2.39453 198.348 2.39453C198.673 2.39453 198.973 2.43034 199.246 2.50195C199.52 2.56706 199.783 2.68099 200.037 2.84375L199.656 3.6543C199.461 3.54362 199.249 3.46875 199.021 3.42969C198.794 3.38411 198.569 3.36133 198.348 3.36133C198.107 3.36133 197.915 3.41667 197.771 3.52734C197.635 3.63151 197.566 3.79753 197.566 4.02539C197.566 4.20117 197.628 4.34115 197.752 4.44531C197.882 4.54297 198.048 4.63086 198.25 4.70898C198.452 4.78711 198.667 4.86523 198.895 4.94336C199.122 5.02148 199.334 5.1224 199.529 5.24609C199.731 5.36328 199.897 5.51302 200.027 5.69531C200.158 5.8776 200.223 6.11198 200.223 6.39844C200.223 6.67839 200.167 6.92253 200.057 7.13086C199.946 7.33919 199.796 7.51172 199.607 7.64844C199.419 7.78516 199.201 7.88607 198.953 7.95117C198.706 8.01628 198.442 8.04883 198.162 8.04883C197.993 8.04883 197.837 8.04232 197.693 8.0293C197.55 8.02279 197.41 8.00326 197.273 7.9707C197.137 7.93815 197 7.88932 196.863 7.82422C196.727 7.75911 196.577 7.67122 196.414 7.56055Z" fill="white"/>
</svg>
