<svg width="40" height="40" viewBox="0 0 40 40" fill="none" xmlns="http://www.w3.org/2000/svg">
<path fill-rule="evenodd" clip-rule="evenodd" d="M20 0C8.95455 0 0 8.95455 0 20C0 31.0455 8.95455 40 20 40C31.0455 40 40 31.0455 40 20C40 8.95455 31.0455 0 20 0ZM26.74 15.8309C27.0712 15.488 27.2545 15.0287 27.2503 14.552C27.2462 14.0753 27.055 13.6193 26.7179 13.2821C26.3807 12.945 25.9247 12.7538 25.448 12.7497C24.9713 12.7455 24.512 12.9288 24.1691 13.26L20 17.4291L15.8309 13.26C15.6632 13.0863 15.4626 12.9478 15.2407 12.8525C15.0189 12.7573 14.7803 12.7071 14.5389 12.705C14.2975 12.7029 14.0581 12.7489 13.8346 12.8403C13.6112 12.9317 13.4082 13.0668 13.2375 13.2375C13.0668 13.4082 12.9317 13.6112 12.8403 13.8346C12.7489 14.0581 12.7029 14.2975 12.705 14.5389C12.7071 14.7803 12.7573 15.0189 12.8525 15.2407C12.9478 15.4626 13.0863 15.6632 13.26 15.8309L17.4291 20L13.26 24.1691C13.0863 24.3368 12.9478 24.5374 12.8525 24.7593C12.7573 24.9811 12.7071 25.2197 12.705 25.4611C12.7029 25.7025 12.7489 25.9419 12.8403 26.1654C12.9317 26.3888 13.0668 26.5918 13.2375 26.7625C13.4082 26.9333 13.6112 27.0683 13.8346 27.1597C14.0581 27.2511 14.2975 27.2971 14.5389 27.295C14.7803 27.2929 15.0189 27.2427 15.2407 27.1475C15.4626 27.0522 15.6632 26.9137 15.8309 26.74L20 22.5709L24.1691 26.74C24.512 27.0712 24.9713 27.2545 25.448 27.2503C25.9247 27.2462 26.3807 27.055 26.7179 26.7179C27.055 26.3807 27.2462 25.9247 27.2503 25.448C27.2545 24.9713 27.0712 24.512 26.74 24.1691L22.5709 20L26.74 15.8309Z" fill="#F24E1E"/>
</svg>
