<svg width="38" height="43" viewBox="0 0 38 43" fill="none" xmlns="http://www.w3.org/2000/svg">
<path d="M11.3992 6.4502C9.88748 6.4502 8.43767 7.12975 7.36871 8.33936C6.29975 9.54897 5.69922 11.1895 5.69922 12.9002V30.1002C5.69922 31.8108 6.29975 33.4514 7.36871 34.661C8.43767 35.8706 9.88748 36.5502 11.3992 36.5502H17.1961C17.1314 36.1966 17.099 35.8363 17.0992 35.4752V34.4002H11.3992C10.3914 34.4002 9.42485 33.9472 8.71221 33.1408C7.99957 32.3343 7.59922 31.2406 7.59922 30.1002V12.9002C7.59922 11.7598 7.99957 10.666 8.71221 9.85964C9.42485 9.05323 10.3914 8.6002 11.3992 8.6002H26.5992C27.607 8.6002 28.5736 9.05323 29.2862 9.85964C29.9989 10.666 30.3992 11.7598 30.3992 12.9002V15.3211C31.0585 15.4501 31.695 15.6221 32.2992 15.8349V12.9002C32.2992 11.1895 31.6987 9.54897 30.6297 8.33936C29.5608 7.12975 28.111 6.4502 26.5992 6.4502H11.3992ZM32.2992 18.1053C31.6812 17.8478 31.0458 17.6472 30.3992 17.5055C29.4601 17.3 28.5057 17.1978 27.5492 17.2002C22.8277 17.2002 18.9992 19.6082 18.9992 22.5752C18.9992 25.5422 22.8277 27.9502 27.5492 27.9502C32.2707 27.9502 36.0992 25.5422 36.0992 22.5752C36.0992 20.7111 34.5906 19.0707 32.2992 18.1053ZM17.0992 24.1877C16.9743 24.1872 16.8506 24.2147 16.7352 24.2686C16.6198 24.3224 16.5149 24.4016 16.4266 24.5016L13.7438 27.5374L12.9895 26.7591C12.8021 26.5778 12.5597 26.4861 12.3137 26.5033C12.0676 26.5205 11.8371 26.6453 11.6708 26.8513C11.5045 27.0573 11.4156 27.3284 11.4227 27.6073C11.4298 27.8862 11.5324 28.151 11.7089 28.3458L13.1339 29.8185C13.3142 30.0048 13.551 30.1054 13.7951 30.0994C14.0392 30.0934 14.2719 29.9813 14.4449 29.7863L17.0992 26.7827V24.1877ZM17.7718 15.2738C17.9502 15.0719 18.0504 14.7982 18.0504 14.5127C18.0504 14.2272 17.9502 13.9535 17.7718 13.7516C17.5934 13.5497 17.3515 13.4363 17.0992 13.4363C16.8469 13.4363 16.605 13.5497 16.4266 13.7516L13.7438 16.7874L12.9895 16.0091C12.8021 15.8278 12.5597 15.7361 12.3137 15.7533C12.0676 15.7705 11.8371 15.8953 11.6708 16.1013C11.5045 16.3073 11.4156 16.5784 11.4227 16.8573C11.4298 17.1362 11.5324 17.401 11.7089 17.5958L13.1339 19.0685C13.3145 19.2546 13.5514 19.3548 13.7955 19.3484C14.0396 19.342 14.2722 19.2294 14.4449 19.0341L17.7699 15.2716L17.7718 15.2738ZM27.5492 30.1002C30.1712 30.1002 32.6374 29.4358 34.5184 28.2555C35.0751 27.905 35.6166 27.4815 36.1011 26.987L36.0992 35.4752C36.0992 38.4443 32.2707 40.8502 27.5492 40.8502C22.8277 40.8502 18.9992 38.4422 18.9992 35.4752V26.9934C19.4837 27.4879 20.0252 27.9072 20.58 28.2576C22.461 29.4401 24.9272 30.1023 27.5492 30.1023V30.1002Z" fill="white"/>
</svg>
