<svg width="30" height="30" viewBox="0 0 40 40" fill="none" xmlns="http://www.w3.org/2000/svg">
<path d="M5.75008 40H34.2501C35.6945 40 36.9306 39.5443 37.9584 38.6328C38.9862 37.7214 39.5279 36.5625 39.5834 35.1562V35C39.5834 33.75 39.2223 32.5781 38.5001 31.4844L25.3334 15V3.35938H27.0834C27.5279 3.35938 27.9445 3.17708 28.3334 2.8125C28.7223 2.44792 28.9167 2.05729 28.9167 1.64062C28.9167 1.22396 28.7223 0.846354 28.3334 0.507812C27.9445 0.169271 27.5279 0 27.0834 0H12.9167C12.4723 0 12.0556 0.169271 11.6667 0.507812C11.2779 0.846354 11.0834 1.22396 11.0834 1.64062C11.0834 2.05729 11.2779 2.44792 11.6667 2.8125C12.0556 3.17708 12.4723 3.35938 12.9167 3.35938H14.6667V14.8438L1.66675 31.3281C0.944526 32.4219 0.583415 33.5417 0.583415 34.6875L0.416748 35C0.472304 36.4062 1.02786 37.5911 2.08341 38.5547C3.13897 39.5182 4.36119 40 5.75008 40ZM14.6667 20.4688L15.5834 19.5312C16.9167 17.7604 17.8056 15.7552 18.2501 13.5156V3.35938H21.7501V13.3594C22.2501 15.8073 23.139 17.7865 24.4167 19.2969L25.3334 20.3125L28.9167 24.8438H11.0834L14.6667 20.4688ZM4.50008 33.3594L9.33341 27.1875V28.3594H31.5834L35.5001 33.3594C35.6112 33.4635 35.7779 33.9583 36.0001 34.8438C36.0001 35.3125 35.8195 35.7292 35.4584 36.0938C35.0973 36.4583 34.6945 36.6406 34.2501 36.6406H5.75008C5.30564 36.6406 4.90286 36.4583 4.54175 36.0938C4.18064 35.7292 4.00008 35.3125 4.00008 34.8438C4.00008 34.1667 4.16675 33.6719 4.50008 33.3594Z" fill="white"/>
</svg>
