<svg width="40" height="40" viewBox="0 0 40 40" fill="none" xmlns="http://www.w3.org/2000/svg">
<path d="M35.09 30.934L27.532 23.376C28.7102 21.4422 29.3317 19.2206 29.328 16.956C29.328 10.122 23.406 4.20203 16.572 4.20203C14.9472 4.20176 13.3382 4.5216 11.8371 5.14325C10.3359 5.76491 8.97194 6.67622 7.82304 7.82512C6.67414 8.97401 5.76284 10.338 5.14118 11.8392C4.51952 13.3403 4.19969 14.9492 4.19995 16.574C4.19995 23.406 10.122 29.328 16.954 29.328C19.1439 29.33 21.2946 28.7473 23.184 27.64L30.782 35.242C31.1393 35.5984 31.6233 35.7985 32.128 35.7985C32.6326 35.7985 33.1167 35.5984 33.474 35.242L35.36 33.356C36.102 32.614 35.832 31.676 35.09 30.934ZM8.00795 16.574C8.00769 15.4492 8.22901 14.3354 8.65927 13.2961C9.08954 12.2568 9.72032 11.3125 10.5156 10.5171C11.3108 9.72162 12.255 9.09062 13.2942 8.66011C14.3334 8.22961 15.4471 8.00803 16.572 8.00803C21.304 8.00803 25.52 12.222 25.52 16.956C25.5194 19.2277 24.6168 21.4062 23.0104 23.0125C21.4041 24.6188 19.2256 25.5215 16.954 25.522C12.222 25.52 8.00795 21.304 8.00795 16.574V16.574Z" fill="#313945"/>
</svg>
