<svg width="45" height="45" viewBox="0 0 45 45" fill="none" xmlns="http://www.w3.org/2000/svg">
<path d="M29.5312 22.5C29.5312 24.3648 28.7905 26.1532 27.4718 27.4718C26.1532 28.7905 24.3648 29.5312 22.5 29.5312C20.6352 29.5312 18.8468 28.7905 17.5282 27.4718C16.2095 26.1532 15.4688 24.3648 15.4688 22.5C15.4688 20.6352 16.2095 18.8468 17.5282 17.5282C18.8468 16.2095 20.6352 15.4688 22.5 15.4688C24.3648 15.4688 26.1532 16.2095 27.4718 17.5282C28.7905 18.8468 29.5312 20.6352 29.5312 22.5V22.5Z" fill="#313945"/>
<path d="M0 22.5C0 22.5 8.4375 7.03125 22.5 7.03125C36.5625 7.03125 45 22.5 45 22.5C45 22.5 36.5625 37.9688 22.5 37.9688C8.4375 37.9688 0 22.5 0 22.5ZM22.5 32.3438C25.1107 32.3438 27.6145 31.3066 29.4606 29.4606C31.3066 27.6145 32.3438 25.1107 32.3438 22.5C32.3438 19.8893 31.3066 17.3855 29.4606 15.5394C27.6145 13.6934 25.1107 12.6562 22.5 12.6562C19.8893 12.6562 17.3855 13.6934 15.5394 15.5394C13.6934 17.3855 12.6563 19.8893 12.6562 22.5C12.6563 25.1107 13.6934 27.6145 15.5394 29.4606C17.3855 31.3066 19.8893 32.3438 22.5 32.3438V32.3438Z" fill="#313945"/>
</svg>
