<svg width="40" height="40" viewBox="0 0 40 40" fill="none" xmlns="http://www.w3.org/2000/svg">
<path d="M5.83325 6.24998C5.83325 6.13947 5.87715 6.03349 5.95529 5.95535C6.03343 5.87721 6.13941 5.83331 6.24992 5.83331H28.7499C28.8604 5.83331 28.9664 5.87721 29.0445 5.95535C29.1227 6.03349 29.1666 6.13947 29.1666 6.24998V22.9166C29.1666 23.2482 29.2983 23.5661 29.5327 23.8005C29.7671 24.0349 30.0851 24.1666 30.4166 24.1666C30.7481 24.1666 31.0661 24.0349 31.3005 23.8005C31.5349 23.5661 31.6666 23.2482 31.6666 22.9166V6.24998C31.6666 5.47643 31.3593 4.73457 30.8123 4.18759C30.2653 3.6406 29.5235 3.33331 28.7499 3.33331H6.24992C5.47637 3.33331 4.73451 3.6406 4.18752 4.18759C3.64054 4.73457 3.33325 5.47643 3.33325 6.24998V33.75C3.33325 35.36 4.63992 36.6666 6.24992 36.6666H17.9166C18.2481 36.6666 18.566 36.535 18.8005 36.3005C19.0349 36.0661 19.1666 35.7482 19.1666 35.4166C19.1666 35.0851 19.0349 34.7672 18.8005 34.5328C18.566 34.2983 18.2481 34.1666 17.9166 34.1666H6.24992C6.13941 34.1666 6.03343 34.1227 5.95529 34.0446C5.87715 33.9665 5.83325 33.8605 5.83325 33.75V6.24998Z" fill="white"/>
<path d="M10.4167 11.6667C10.0852 11.6667 9.76728 11.7984 9.53286 12.0328C9.29844 12.2672 9.16675 12.5852 9.16675 12.9167C9.16675 13.2482 9.29844 13.5661 9.53286 13.8006C9.76728 14.035 10.0852 14.1667 10.4167 14.1667H24.5834C24.9149 14.1667 25.2329 14.035 25.4673 13.8006C25.7017 13.5661 25.8334 13.2482 25.8334 12.9167C25.8334 12.5852 25.7017 12.2672 25.4673 12.0328C25.2329 11.7984 24.9149 11.6667 24.5834 11.6667H10.4167ZM9.16675 19.5834C9.16675 19.2518 9.29844 18.9339 9.53286 18.6995C9.76728 18.4651 10.0852 18.3334 10.4167 18.3334H17.9167C18.2483 18.3334 18.5662 18.4651 18.8006 18.6995C19.0351 18.9339 19.1667 19.2518 19.1667 19.5834C19.1667 19.9149 19.0351 20.2328 18.8006 20.4672C18.5662 20.7017 18.2483 20.8334 17.9167 20.8334H10.4167C10.0852 20.8334 9.76728 20.7017 9.53286 20.4672C9.29844 20.2328 9.16675 19.9149 9.16675 19.5834V19.5834ZM36.3001 27.1334C36.4229 27.0189 36.5214 26.8809 36.5897 26.7276C36.658 26.5743 36.6948 26.4087 36.6977 26.2409C36.7007 26.0731 36.6698 25.9063 36.607 25.7507C36.5441 25.595 36.4505 25.4537 36.3318 25.335C36.2131 25.2163 36.0717 25.1227 35.9161 25.0598C35.7604 24.9969 35.5937 24.9661 35.4259 24.969C35.258 24.972 35.0925 25.0087 34.9392 25.0771C34.7859 25.1454 34.6479 25.2439 34.5334 25.3667L26.2501 33.65L22.9667 30.3667C22.8523 30.2439 22.7143 30.1454 22.561 30.0771C22.4076 30.0087 22.2421 29.972 22.0743 29.969C21.9064 29.9661 21.7397 29.9969 21.5841 30.0598C21.4284 30.1227 21.2871 30.2163 21.1684 30.335C21.0497 30.4537 20.9561 30.595 20.8932 30.7507C20.8303 30.9063 20.7995 31.0731 20.8024 31.2409C20.8054 31.4087 20.8421 31.5743 20.9104 31.7276C20.9788 31.8809 21.0773 32.0189 21.2001 32.1334L25.3667 36.3C25.6011 36.5341 25.9188 36.6656 26.2501 36.6656C26.5813 36.6656 26.899 36.5341 27.1334 36.3L36.3001 27.1334Z" fill="white"/>
</svg>
