<svg width="36" height="44" viewBox="0 0 36 44" fill="none" xmlns="http://www.w3.org/2000/svg">
<g filter="url(#filter0_d_168_426)">
<path d="M28.4974 36C29.4263 36 30.3172 35.6207 30.9741 34.9456C31.631 34.2705 32 33.3548 32 32.4V3.6C32 2.64522 31.631 1.72955 30.9741 1.05442C30.3172 0.379284 29.4263 0 28.4974 0H7.50263C6.57367 0 5.68277 0.379284 5.0259 1.05442C4.36903 1.72955 4 2.64522 4 3.6V32.4C4 33.3548 4.36903 34.2705 5.0259 34.9456C5.68277 35.6207 6.57367 36 7.50263 36H28.4974ZM12.7566 5.4H23.2644V9H12.7566V5.4ZM21.951 16.65C21.9468 17.723 21.5304 18.7508 20.7924 19.5097C20.0543 20.2686 19.0545 20.6971 18.0105 20.7018C15.8476 20.7018 14.0701 18.8748 14.0701 16.65C14.0701 14.4252 15.8476 12.6 18.0105 12.6C19.0543 12.6043 20.0542 13.0323 20.7922 13.7909C21.5303 14.5495 21.9468 15.5772 21.951 16.65ZM10.1296 29.1384C10.1296 26.1432 13.6813 23.0634 18.0105 23.0634C22.3398 23.0634 25.8914 26.1432 25.8914 29.1384V30.1518H10.1296V29.1384Z" fill="#CCCCCC"/>
</g>
<defs>
<filter id="filter0_d_168_426" x="0" y="0" width="36" height="44" filterUnits="userSpaceOnUse" color-interpolation-filters="sRGB">
<feFlood flood-opacity="0" result="BackgroundImageFix"/>
<feColorMatrix in="SourceAlpha" type="matrix" values="0 0 0 0 0 0 0 0 0 0 0 0 0 0 0 0 0 0 127 0" result="hardAlpha"/>
<feOffset dy="4"/>
<feGaussianBlur stdDeviation="2"/>
<feComposite in2="hardAlpha" operator="out"/>
<feColorMatrix type="matrix" values="0 0 0 0 0 0 0 0 0 0 0 0 0 0 0 0 0 0 0.25 0"/>
<feBlend mode="normal" in2="BackgroundImageFix" result="effect1_dropShadow_168_426"/>
<feBlend mode="normal" in="SourceGraphic" in2="effect1_dropShadow_168_426" result="shape"/>
</filter>
</defs>
</svg>
